<mxfile host="app.diagrams.net" modified="2021-03-26T08:13:42.576Z" agent="5.0 (Macintosh; Intel Mac OS X 11_2_3) AppleWebKit/537.36 (KHTML, like Gecko) Chrome/89.0.4389.90 Safari/537.36" etag="6VjdMBdu5md3yrvP7PXN" version="14.5.1" type="github">
  <diagram id="ymFRqzQtkKEcvCzXI0pz" name="Page-1">
    <mxGraphModel dx="1796" dy="508" grid="1" gridSize="10" guides="1" tooltips="1" connect="1" arrows="1" fold="1" page="1" pageScale="1" pageWidth="850" pageHeight="1100" math="0" shadow="0">
      <root>
        <mxCell id="0" />
        <mxCell id="1" parent="0" />
        <mxCell id="lbC1guZqgFnO4Dv_73Rz-2" value="" style="rounded=0;whiteSpace=wrap;html=1;" vertex="1" parent="1">
          <mxGeometry x="140" y="200" width="180" height="320" as="geometry" />
        </mxCell>
        <mxCell id="lbC1guZqgFnO4Dv_73Rz-3" value="Call Stack" style="text;html=1;strokeColor=none;fillColor=none;align=center;verticalAlign=middle;whiteSpace=wrap;rounded=0;" vertex="1" parent="1">
          <mxGeometry x="200" y="160" width="80" height="20" as="geometry" />
        </mxCell>
        <mxCell id="lbC1guZqgFnO4Dv_73Rz-17" style="edgeStyle=orthogonalEdgeStyle;rounded=0;orthogonalLoop=1;jettySize=auto;html=1;" edge="1" parent="1" source="lbC1guZqgFnO4Dv_73Rz-4" target="lbC1guZqgFnO4Dv_73Rz-18">
          <mxGeometry relative="1" as="geometry">
            <mxPoint x="110" y="460" as="targetPoint" />
          </mxGeometry>
        </mxCell>
        <mxCell id="lbC1guZqgFnO4Dv_73Rz-4" value="" style="rounded=0;whiteSpace=wrap;html=1;" vertex="1" parent="1">
          <mxGeometry x="160" y="430" width="120" height="60" as="geometry" />
        </mxCell>
        <mxCell id="lbC1guZqgFnO4Dv_73Rz-5" value="GEC" style="text;html=1;strokeColor=none;fillColor=none;align=center;verticalAlign=middle;whiteSpace=wrap;rounded=0;" vertex="1" parent="1">
          <mxGeometry x="210" y="450" width="40" height="20" as="geometry" />
        </mxCell>
        <mxCell id="lbC1guZqgFnO4Dv_73Rz-11" style="edgeStyle=orthogonalEdgeStyle;rounded=0;orthogonalLoop=1;jettySize=auto;html=1;" edge="1" parent="1" source="lbC1guZqgFnO4Dv_73Rz-6">
          <mxGeometry relative="1" as="geometry">
            <mxPoint x="390" y="370" as="targetPoint" />
          </mxGeometry>
        </mxCell>
        <mxCell id="lbC1guZqgFnO4Dv_73Rz-6" value="" style="rounded=0;whiteSpace=wrap;html=1;" vertex="1" parent="1">
          <mxGeometry x="170" y="340" width="120" height="60" as="geometry" />
        </mxCell>
        <mxCell id="lbC1guZqgFnO4Dv_73Rz-24" style="edgeStyle=orthogonalEdgeStyle;rounded=0;orthogonalLoop=1;jettySize=auto;html=1;entryX=1.017;entryY=0.65;entryDx=0;entryDy=0;entryPerimeter=0;" edge="1" parent="1" source="lbC1guZqgFnO4Dv_73Rz-7" target="lbC1guZqgFnO4Dv_73Rz-23">
          <mxGeometry relative="1" as="geometry" />
        </mxCell>
        <mxCell id="lbC1guZqgFnO4Dv_73Rz-7" value="" style="rounded=0;whiteSpace=wrap;html=1;" vertex="1" parent="1">
          <mxGeometry x="170" y="240" width="120" height="60" as="geometry" />
        </mxCell>
        <mxCell id="lbC1guZqgFnO4Dv_73Rz-8" style="edgeStyle=orthogonalEdgeStyle;rounded=0;orthogonalLoop=1;jettySize=auto;html=1;exitX=1;exitY=0;exitDx=0;exitDy=0;entryX=0.75;entryY=0;entryDx=0;entryDy=0;" edge="1" parent="1" source="lbC1guZqgFnO4Dv_73Rz-5" target="lbC1guZqgFnO4Dv_73Rz-5">
          <mxGeometry relative="1" as="geometry" />
        </mxCell>
        <mxCell id="lbC1guZqgFnO4Dv_73Rz-9" value="FIRST()" style="text;html=1;strokeColor=none;fillColor=none;align=center;verticalAlign=middle;whiteSpace=wrap;rounded=0;" vertex="1" parent="1">
          <mxGeometry x="210" y="360" width="40" height="20" as="geometry" />
        </mxCell>
        <mxCell id="lbC1guZqgFnO4Dv_73Rz-10" value="SECOND" style="text;html=1;strokeColor=none;fillColor=none;align=center;verticalAlign=middle;whiteSpace=wrap;rounded=0;" vertex="1" parent="1">
          <mxGeometry x="210" y="260" width="40" height="20" as="geometry" />
        </mxCell>
        <mxCell id="lbC1guZqgFnO4Dv_73Rz-15" value="" style="rounded=0;whiteSpace=wrap;html=1;" vertex="1" parent="1">
          <mxGeometry x="390" y="190" width="190" height="340" as="geometry" />
        </mxCell>
        <mxCell id="lbC1guZqgFnO4Dv_73Rz-16" value="SCOPE CHAIN" style="text;html=1;align=center;verticalAlign=middle;resizable=0;points=[];autosize=1;" vertex="1" parent="1">
          <mxGeometry x="440" y="150" width="100" height="20" as="geometry" />
        </mxCell>
        <mxCell id="lbC1guZqgFnO4Dv_73Rz-18" value="NAME=JONAS" style="rounded=0;whiteSpace=wrap;html=1;" vertex="1" parent="1">
          <mxGeometry x="-30" y="430" width="120" height="60" as="geometry" />
        </mxCell>
        <mxCell id="lbC1guZqgFnO4Dv_73Rz-19" value="LET A =1" style="text;html=1;strokeColor=none;fillColor=none;align=center;verticalAlign=middle;whiteSpace=wrap;rounded=0;" vertex="1" parent="1">
          <mxGeometry x="401" y="280" width="150" height="20" as="geometry" />
        </mxCell>
        <mxCell id="lbC1guZqgFnO4Dv_73Rz-22" style="edgeStyle=orthogonalEdgeStyle;rounded=0;orthogonalLoop=1;jettySize=auto;html=1;entryX=0.5;entryY=1;entryDx=0;entryDy=0;" edge="1" parent="1" source="lbC1guZqgFnO4Dv_73Rz-20" target="lbC1guZqgFnO4Dv_73Rz-19">
          <mxGeometry relative="1" as="geometry" />
        </mxCell>
        <mxCell id="lbC1guZqgFnO4Dv_73Rz-20" value="SECOND()&lt;br&gt;&lt;br&gt;A?" style="rounded=0;whiteSpace=wrap;html=1;" vertex="1" parent="1">
          <mxGeometry x="425" y="360" width="120" height="60" as="geometry" />
        </mxCell>
        <mxCell id="lbC1guZqgFnO4Dv_73Rz-23" value="C=2" style="rounded=0;whiteSpace=wrap;html=1;" vertex="1" parent="1">
          <mxGeometry x="-50" y="230" width="120" height="60" as="geometry" />
        </mxCell>
      </root>
    </mxGraphModel>
  </diagram>
</mxfile>
